<svg xmlns="http://www.w3.org/2000/svg" viewBox="0 0 1278.64 1243.78"><defs><style>.cls-5{fill:none;stroke:#000;stroke-miterlimit:10;stroke-width:100px;}.cls-6{stroke:#000;}{</style></defs><title>light</title><g id="Sun"><rect class="cls-5" x="448.84" y="422.49" width="409.13" height="409.13"/></g><g id="Rays"><rect class="cls-6" x="1319.79" y="840.01" width="195.06" height="99.21" transform="translate(1543.01 -1319.79) rotate(90)"/><rect class="cls-6" x="763.92" y="1369.53" width="195.06" height="99.21" transform="translate(958.98 2046.18) rotate(180)"/><rect class="cls-6" x="1847.5" y="1367.72" width="195.06" height="99.21" transform="translate(3126.15 2042.56) rotate(180)"/><rect class="cls-6" x="1319.79" y="1888.73" width="195.06" height="99.21" transform="translate(2591.73 -271.07) rotate(90)"/><rect class="cls-6" x="879.78" y="937.54" width="228.13" height="99.21" transform="translate(234.66 1595.83) rotate(-135)"/><rect class="cls-6" x="1733.57" y="1791.19" width="227.86" height="99.21" transform="translate(1088.32 3656.74) rotate(-135)"/><rect class="cls-6" x="1735.5" y="937.54" width="224.01" height="99.21" transform="translate(-920.82 803.43) rotate(-45)"/><rect class="cls-6" x="882.22" y="1791.19" width="223.25" height="99.21" transform="translate(-1774.47 449.83) rotate(-45)"/></g></svg>