<svg xmlns="http://www.w3.org/2000/svg" viewBox="0 0 427.5 844.6"><defs><style>.cls-1{fill:#ee2425;}.cls-2{fill:#ed272a;}.cls-3{fill:none;stroke:#000;stroke-miterlimit:10;stroke-width:25px;}</style></defs><title>zeroish</title><g id="Z"><polygon points="0 0 0 28.35 162.26 28.35 0 234.19 0 262.55 198.53 262.55 198.53 234.19 36.03 234.19 198.53 28.35 198.53 0 0 0"/></g><g id="E"><polygon class="cls-1" points="425.53 28.35 227 28.35 227 0 425.53 0 425.53 28.35 425.53 28.35"/><polygon points="425.53 262.55 227 262.55 227 234.19 425.53 234.19 425.53 262.55 425.53 262.55"/><polygon points="425.53 145.45 227 145.45 227 117.1 425.53 117.1 425.53 145.45 425.53 145.45"/></g><g id="R"><path d="M83.13,334.59l15.22,28.34H208.1c56.73-1.06,61.54,89.59,0,87.71h-37L249.8,595.71H281l-58.36-108c77.65-23.83,84.85-143.28.33-153.12C211.85,333.3,83.13,334.59,83.13,334.59Z" transform="translate(-83.13 -43.69)"/><polygon class="cls-1" points="0 407.36 0 552.02 28.35 552.02 28.35 460.2 0 407.36"/></g><g id="O"><polygon class="cls-2" points="404.8 506.78 388 532.21 249.96 335.1 267.13 310.12 404.8 506.78"/><path class="cls-3" d="M498.13,465.15c0,118.76,0,121.56-88.47,118.47-88.91-3.1-88.83-4.91-88.47-118.47.38-118.47,0-118.47,88.47-118.47S498.13,346.68,498.13,465.15Z" transform="translate(-83.13 -43.69)"/></g><g id="I"><polyline points="0 580.36 0 842.91 28.35 842.91 28.35 580.36"/></g><g id="S"><path class="cls-3" d="M226.05,755.32c-71.38-1.56-71.21-1.79-71.38-60.23-.17-60.24-.17-60.24,71.38-60.24,70.42,0,70.42,0,71.38,46.07" transform="translate(-83.13 -43.69)"/><path class="cls-3" d="M225.05,755.32c75.5,0,71.33,0,71.38,60.24s.05,60.24-71.38,60.24c-70.55,0-71.38-10-71.38-43.23" transform="translate(-83.13 -43.69)"/></g><g id="H"><polygon class="cls-2" points="381.46 726.49 296.43 726.49 296.43 698.13 381.46 698.13 381.46 726.49 381.46 726.49"/><polyline points="256.45 580.37 256.45 842.92 284.81 842.92 284.81 580.37"/><polyline points="393.08 580.37 393.08 842.92 421.44 842.92 421.44 580.37"/></g></svg>